# xmcd
#
# Track frame offsets:
#	150
#	17595
#	36975
#	55992
#	82627
#	115322
#	131822
#	148240
#	165702
#	185235
#	197857
#	216912
#
# Disc length: 3105 seconds
#
# Revision: 0
# Processed by: cddbd v1.5.2PL0 Copyright (c) Steve Scherf et al.
# Submitted via: EasyCDDAExtractor 10.2.0.1
#
DISCID=b40c1f0c
DTITLE=The Singing Cookes - Running My Last Mile Home
DYEAR=1998
DGENRE=Gospel
TTITLE0=Running My Last Mile Home
TTITLE1=I Want Us To Be Together In Heaven
TTITLE2=Mama
TTITLE3=You First Loved Me
TTITLE4=Empty Tomb
TTITLE5=Go Rest High On That Mountain
TTITLE6=Chiseled In Stone
TTITLE7=My God Still Moves
TTITLE8=Ride Out The Storm
TTITLE9=I Saw The Face Of Jesus
TTITLE10=When I Reach Home
TTITLE11=Roadblock To Calvary
EXTD=
EXTT0=
EXTT1=
EXTT2=
EXTT3=
EXTT4=
EXTT5=
EXTT6=
EXTT7=
EXTT8=
EXTT9=
EXTT10=
EXTT11=
PLAYORDER=
